<?xml version="1.0" encoding="utf-8"?>
<!-- Generator: Adobe Illustrator 27.0.0, SVG Export Plug-In . SVG Version: 6.00 Build 0)  -->
<svg version="1.1" id="Layer_1" xmlns="http://www.w3.org/2000/svg" xmlns:xlink="http://www.w3.org/1999/xlink" x="0px" y="0px"
	 viewBox="0 0 1762 724" style="enable-background:new 0 0 1762 724;" xml:space="preserve">
<style type="text/css">
	.st0{fill-rule:evenodd;clip-rule:evenodd;}
</style>
<g>
	<path d="M0.12,717.15V378.57H143.7l3.57,22.86c12.38-8.09,29.29-15.11,50.72-21.07c21.43-5.95,44.29-8.93,68.57-8.93
		c41.43,0,71.67,10.6,90.72,31.79c19.04,21.2,28.57,53.46,28.57,96.79v217.16H232.27v-199.3c0-11.9-2.62-20.36-7.86-25.36
		c-5.25-5-14.05-7.5-26.43-7.5c-7.62,0-15.6,1.91-23.93,5.71c-8.34,3.82-15.12,8.34-20.36,13.57v212.87H0.12z"/>
	<path d="M655.87,724.3c-69.54,0-121.08-14.88-154.65-44.64c-33.57-29.76-50.36-73.69-50.36-131.79
		c0-58.09,16.9-102.02,50.72-131.79c33.81-29.75,85.24-44.65,154.29-44.65c69.52,0,121.31,14.89,155.36,44.65
		c34.04,29.77,51.07,73.7,51.07,131.79c0,58.1-16.91,102.04-50.72,131.79C777.77,709.42,725.87,724.3,655.87,724.3z M655.87,613.58
		c17.14,0,29.76-5,37.86-15c8.09-10,12.14-26.9,12.14-50.72c0-23.81-4.05-40.72-12.14-50.72c-8.1-10-20.72-15-37.86-15
		c-16.68,0-28.93,5-36.79,15c-7.86,10-11.79,26.91-11.79,50.72c0,23.82,3.93,40.72,11.79,50.72
		C626.93,608.57,639.19,613.58,655.87,613.58z"/>
	<path d="M1094.45,724.3c-48.57,0-83.58-12.02-105-36.07c-21.43-24.04-32.14-56.54-32.14-97.51v-100h-42.15V378.57h42.15v-67.86
		l153.58-33.57v101.43h73.57l-4.29,112.15h-69.29v90.72c0,22.86,12.86,34.29,38.57,34.29c14.29,0,28.57-2.38,42.86-7.15v98.58
		c-13.82,5.71-28.57,10-44.29,12.86C1132.31,722.87,1114.46,724.3,1094.45,724.3z"/>
	<path d="M1411.61,724.3c-48.57,0-83.58-12.02-105-36.07c-21.43-24.04-32.14-56.54-32.14-97.51v-100h-42.15V378.57h42.15v-67.86
		l153.58-33.57v101.43h73.57l-4.29,112.15h-69.29v90.72c0,22.86,12.86,34.29,38.57,34.29c14.29,0,28.57-2.38,42.86-7.15v98.58
		c-13.82,5.71-28.57,10-44.29,12.86C1449.47,722.87,1431.61,724.3,1411.61,724.3z"/>
</g>
<g>
	<g>
		<polygon class="st0" points="1761.96,97.58 1761.96,173.39 1693.05,173.39 1727.51,233.07 1661.85,270.97 1627.4,211.3 
			1592.94,270.97 1527.29,233.07 1561.74,173.39 1492.84,173.39 1492.84,97.58 1561.74,97.58 1527.29,37.9 1592.94,0 1627.4,59.68 
			1661.85,0 1727.51,37.9 1693.05,97.58 1761.96,97.58 		"/>
	</g>
</g>
</svg>
