<?xml version="1.0" encoding="utf-8"?>
<!-- Generator: Adobe Illustrator 27.0.0, SVG Export Plug-In . SVG Version: 6.00 Build 0)  -->
<svg version="1.1" id="Layer_1" xmlns="http://www.w3.org/2000/svg" xmlns:xlink="http://www.w3.org/1999/xlink" x="0px" y="0px"
	 viewBox="0 0 512 512.5" style="enable-background:new 0 0 512 512.5;" xml:space="preserve">
<style type="text/css">
	.st0{fill:#C1FF02;}
	.st1{fill-rule:evenodd;clip-rule:evenodd;}
</style>
<path class="st0" d="M397.9,512.5H114.1C51.1,512.5,0,461.4,0,398.4V114.1C0,51.1,51.1,0,114.1,0h283.8C460.9,0,512,51.1,512,114.1
	v284.3C512,461.4,460.9,512.5,397.9,512.5z"/>
<g>
	<g>
		<polygon class="st1" points="390.6,218.3 390.6,294.1 321.6,294.1 356.1,353.8 290.5,391.7 256,332 221.5,391.7 155.9,353.8 
			190.3,294.1 121.4,294.1 121.4,218.3 190.3,218.3 155.9,158.6 221.5,120.7 256,180.4 290.5,120.7 356.1,158.6 321.6,218.3 		"/>
	</g>
</g>
</svg>
