<svg width="54" height="54" viewBox="0 0 54 54" fill="none" xmlns="http://www.w3.org/2000/svg">
<path d="M14.9325 23.9536L23.841 18.3177C24.135 18.1327 24.349 17.8442 24.4409 17.5091C24.5327 17.1741 24.4958 16.8168 24.3373 16.5077C24.1787 16.1985 23.9102 15.96 23.5845 15.839C23.2589 15.7181 22.8997 15.7235 22.5778 15.8542L22.356 15.9667L10.5087 23.4709L10.3304 23.6302L10.223 23.7656L10.1192 23.936L10.0934 23.9871C10.0519 24.0771 10.0203 24.1712 9.9989 24.2678L10.0576 24.0702L10.0306 24.1525L9.9787 24.3829L9.9669 24.6253L9.98269 24.8083L10.0448 25.0388L10.1512 25.2622L17.6098 37.0593C17.7949 37.3533 18.0834 37.5673 18.4184 37.6591C18.7535 37.751 19.1107 37.714 19.4199 37.5555C19.729 37.397 19.9676 37.1285 20.0885 36.8028C20.2095 36.4771 20.2041 36.118 20.0734 35.7961L19.9588 35.5709L14.3217 26.6678L25.9627 29.2843C35.5126 31.4332 43.1254 27.517 45.1451 19.9465L45.2823 19.3877C45.3632 19.0281 45.2979 18.6511 45.1009 18.3396C44.9038 18.0282 44.5911 17.8078 44.2316 17.7268C43.872 17.6459 43.495 17.7112 43.1836 17.9082C42.8721 18.1053 42.6517 18.418 42.5708 18.7775C41.184 24.9407 35.2892 28.2607 27.2857 26.7219L26.5729 26.5728L14.9325 23.9536Z" fill="#F1FFFA"/>
</svg>
